<?xml version="1.0" encoding="UTF-8" standalone="no"?>
<svg viewBox="0 0 500 500" xmlns="http://www.w3.org/2000/svg" xmlns:xlink="http://www.w3.org/1999/xlink">
<defs>
<linearGradient id="linearGradient4128-86-1">
<stop offset="0" stop-color="#f6ebeb" stop-opacity=".6771"/>
<stop offset="1" stop-color="#f4eded" stop-opacity="0"/>
</linearGradient>
<linearGradient gradientUnits="userSpaceOnUse" id="linearGradient3975-2" x1="355.75041" x2="356.52892" y1="273.08023" y2="633.23171">
<stop offset="0" stop-color="#5c5858"/>
<stop offset="1" stop-color="#fff"/>
</linearGradient>
<linearGradient gradientUnits="userSpaceOnUse" id="linearGradient6544" x1="176.18355" x2="535.99805" y1="366.01889" y2="581.65621">
<stop offset="0" stop-color="#6d6969"/>
<stop offset=".3834" stop-color="#fff"/>
<stop offset="1" stop-color="#6d6969"/>
</linearGradient>
<radialGradient cx="362.93481" cy="378.69431" gradientTransform="matrix(1,0,0,1.63762,0,-251.02025)" gradientUnits="userSpaceOnUse" id="radialGradient4151-5-0" r="34.90237">
<stop offset="0" stop-color="#f6ebeb" stop-opacity=".4609"/>
<stop offset="1" stop-color="#f4eded" stop-opacity="0"/>
</radialGradient>
<radialGradient cx="37.19324" cy="383.76932" gradientUnits="userSpaceOnUse" id="radialGradient4264" r="58.34419">
<stop offset="0"/>
<stop offset=".9446" stop-color="#252325" stop-opacity="0"/>
<stop offset="1" stop-color="#0f060f" stop-opacity=".9565"/>
</radialGradient>
<radialGradient cx="364.38147" cy="376.76459" gradientTransform="matrix(1,0,0,1.63762,0,-251.02025)" gradientUnits="userSpaceOnUse" id="radialGradient4151-3-7" r="34.90237" xlink:href="#linearGradient4128-86-1"/>
<radialGradient cx="363.42896" cy="378.36115" gradientTransform="matrix(1,0,0,1.63762,0,-251.02025)" gradientUnits="userSpaceOnUse" id="radialGradient4134-6" r="34.90237" xlink:href="#linearGradient4128-86-1"/>
<radialGradient cx="360.53445" cy="376.37003" gradientTransform="matrix(1,0,0,1.63762,0,-251.02025)" gradientUnits="userSpaceOnUse" id="radialGradient4151-2-2" r="34.90237" xlink:href="#linearGradient4128-86-1"/>
<radialGradient cx="362.29745" cy="374.80838" gradientTransform="matrix(1,0,0,1.63762,0,-251.02025)" gradientUnits="userSpaceOnUse" id="radialGradient4151-8-8" r="34.90237" xlink:href="#linearGradient4128-86-1"/>
</defs>
<g transform="translate(0,-552.36215)">
<path d="m-57,175a45,45 0 1,1 -90,0 45,45 0 1,1 90,0z" fill="none" stroke="#000" stroke-width=".75759" transform="matrix(3.95991,0,0,3.95991,650.91106,124.37749)"/>
<g transform="translate(-112.73907,338.81784)">
<path d="m569.66565,653.66039-10.02189,1.95733-8.2613.60872-12.50955-.96227-12.50955-2.88681-10.26425-3.8491-13.79257-6.73591-10.58501-5.45288-9.94349-5.13212-7.37742-4.16985-7.69819-3.52834-6.73591-2.88682-10.90576-5.77363-16.6794-6.41516-10.26425-4.16985-14.43409-3.20757-8.3397-2.24531 6.41515-2.2453 4.16985-1.60379 6.41515-3.20758 5.45288-3.20757 3.8491-2.24531 18.60394.96228 4.49061.96227 8.3397,2.2453 9.30197,4.16985 11.86804,4.16985 9.62273,3.52834 7.69818,3.84909 8.66046,4.16985 7.37743,3.52833 6.09439,2.24531 5.57788,1.97879 7.07565,1.97009 6.59193,1.18324 5.45288.32076h5.13213l5.77363-.32076 4.16985-.32076 3.91985-.26651 2.81607-.375 1.52539,10.05467 2.10132,11.75685z"/>
<path d="m522.15459,644.03765 4.38054,1.55155 7.2599,1.73839 5.71939.87991 8.01894.64152h7.37743l5.7653-.50532 4.12038-.71044 1.82448-.42861-1.20355-6.69533-.96227-5.13212-.81829-4.26104-.70711-3.75791-5.15157.86833-5.43343.73546h-5.77364l-4.81137-.32076-6.8721-.88777-4.06924-.79051-5.17964-1.39116-3.44523-1.42116-1e-005,5.77363-.0773,9.1252z" fill="#e6e6e6"/>
<path d="m519.07988,641.84738 .54756-18.01746-18.9247-8.56651-15.39637-8.11289-4.81136,15.71713 16.35864,8.73495 13.37788,6.75536z" fill="#e6e6e6"/>
<path d="m469.26849,618.05628 7.37743,3.20758 5.13212-13.79258z" fill="#e6e6e6"/>
<path d="m440.72106,592.39567-5.45289,3.84909-5.13212,1.92454-8.3397,1.92455-6.73591.96227h-3.84909l-4.49061-.32075-6.73591-1.92455 6.73591-1.92455 4.16985-1.60378 5.45288-2.88682 3.20758-1.28303z" fill="#e6e6e6"/>
<path d="m560.87216,625.52359-.5122-2.76067 1.94112-.30311 .47257,2.76684z" fill="#fff" id="use4041"/>
<use height="1052.3622" id="use3144" transform="translate(-4.43479,.64182)" width="744.09448" xlink:href="#use4041"/>
<use height="1052.3622" id="use3146" transform="matrix(.99619,.08716,-.08716,.99619,52.00822,-45.69358)" width="744.09448" xlink:href="#use3144"/>
<use height="1052.3622" id="use3148" transform="matrix(.99619,.08716,-.08716,.99619,52.0779,-45.60492)" width="744.09448" xlink:href="#use3146"/>
<use height="1052.3622" id="use3150" transform="matrix(.99619,.08716,-.08716,.99619,51.81113,-45.56556)" width="744.09448" xlink:href="#use3148"/>
<use height="1052.3622" id="use3214" transform="matrix(.99863,.05234,-.05234,.99863,28.37866,-27.93194)" width="744.09448" xlink:href="#use3150"/>
<use height="1052.3622" id="use3216" transform="translate(-4.90555,-.83969)" width="744.09448" xlink:href="#use3214"/>
<use height="1052.3622" id="use3218" transform="matrix(.99452,.10453,-.10453,.99452,63.2785,-53.47932)" width="744.09448" xlink:href="#use3216"/>
<use height="1052.3622" id="use3220" transform="translate(-4.72878,-1.32583)" width="744.09448" xlink:href="#use3218"/>
<use height="1052.3622" id="use3222" transform="matrix(.99452,.10453,-.10453,.99452,63.3648,-52.84396)" width="744.09448" xlink:href="#use3220"/>
<use height="1052.3622" id="use3224" transform="translate(-4.64039,-1.67938)" width="744.09448" xlink:href="#use3222"/>
<use height="1052.3622" id="use3226" transform="translate(-4.41942,-1.81196)" width="744.09448" xlink:href="#use3224"/>
<use height="1052.3622" id="use3228" transform="matrix(.99863,.05234,-.05234,.99863,28.36583,-27.84655)" width="744.09448" xlink:href="#use3226"/>
<use height="1052.3622" id="use3230" transform="translate(-4.46361,-2.12132)" width="744.09448" xlink:href="#use3228"/>
<use height="1052.3622" id="use3232" transform="matrix(.99863,.05234,-.05234,.99863,28.27084,-27.68737)" width="744.09448" xlink:href="#use3230"/>
<use height="1052.3622" id="use3234" transform="translate(-4.59619,-2.43068)" width="744.09448" xlink:href="#use3232"/>
<use height="1052.3622" id="use3236" transform="translate(-4.11006,-2.16551)" width="744.09448" xlink:href="#use3234"/>
<use height="1052.3622" transform="translate(4.41942,27.04683)" width="744.09448" xlink:href="#use4041"/>
<use height="1052.3622" transform="translate(4.41942,27.04683)" width="744.09448" xlink:href="#use3144"/>
<use height="1052.3622" transform="translate(4.41942,27.04683)" width="744.09448" xlink:href="#use3146"/>
<use height="1052.3622" transform="translate(4.41942,27.40039)" width="744.09448" xlink:href="#use3148"/>
<use height="1052.3622" transform="translate(4.41942,27.40039)" width="744.09448" xlink:href="#use3150"/>
<use height="1052.3622" transform="translate(4.41942,27.40039)" width="744.09448" xlink:href="#use3214"/>
<use height="1052.3622" transform="translate(4.33103,27.57716)" width="744.09448" xlink:href="#use3216"/>
<use height="1052.3622" transform="translate(4.41942,27.66555)" width="744.09448" xlink:href="#use3218"/>
<use height="1052.3622" transform="translate(4.33103,27.48878)" width="744.09448" xlink:href="#use3220"/>
<use height="1052.3622" transform="translate(4.24264,27.48878)" width="744.09448" xlink:href="#use3222"/>
<use height="1052.3622" transform="translate(4.24264,27.48878)" width="744.09448" xlink:href="#use3224"/>
<use height="1052.3622" transform="translate(4.15425,27.312)" width="744.09448" xlink:href="#use3226"/>
<use height="1052.3622" transform="translate(3.97748,27.22361)" width="744.09448" xlink:href="#use3228"/>
<use height="1052.3622" transform="translate(4.24264,27.22361)" width="744.09448" xlink:href="#use3230"/>
<use height="1052.3622" transform="translate(4.41942,27.312)" width="744.09448" xlink:href="#use3232"/>
<use height="1052.3622" transform="translate(4.24264,27.48878)" width="744.09448" xlink:href="#use3234"/>
<use height="1052.3622" id="use3270" transform="translate(3.88909,27.48878)" width="744.09448" xlink:href="#use3236"/>
<use height="1052.3622" id="use3272" transform="translate(-4.59619,-2.56326)" width="744.09448" xlink:href="#use3270"/>
<use height="1052.3622" id="use3274" transform="translate(-4.68458,-2.47487)" width="744.09448" xlink:href="#use3272"/>
<use height="1052.3622" id="use3276" transform="matrix(.99863,-.05234,.05234,.99863,-36.35461,23.81943)" width="744.09448" xlink:href="#use3274"/>
<use height="1052.3622" id="use3278" transform="matrix(.99863,-.05234,.05234,.99863,-36.59358,23.59887)" width="744.09448" xlink:href="#use3276"/>
<use height="1052.3622" transform="matrix(.99863,.05234,-.05234,.99863,28.67461,-25.98244)" width="744.09448" xlink:href="#use3278"/>
<use height="1052.3622" id="use3236-1" transform="matrix(-.4263,-.29569,-1.46126,.60862,1523.2356,364.49911)" width="744.09448" xlink:href="#use3234"/>
<use height="1052.3622" id="use3308" transform="translate(4.1875,.25)" width="744.09448" xlink:href="#use3236-1"/>
<use height="1052.3622" id="use3310" transform="translate(4.3125,.375)" width="744.09448" xlink:href="#use3308"/>
<use height="1052.3622" id="use3312" transform="translate(4.5625,.3125)" width="744.09448" xlink:href="#use3310"/>
<use height="1052.3622" transform="translate(5.125,.375)" width="744.09448" xlink:href="#use3312"/>
<path d="m324.02638,308.06393a147.57637,147.57637 0 1,1 -295.15274,0 147.57637,147.57637 0 1,1 295.15274,0z" transform="matrix(.86957,0,0,.86957,203.46522,209.66075)"/>
<path d="m324.02638,308.06393a147.57637,147.57637 0 1,1 -295.15274,0 147.57637,147.57637 0 1,1 295.15274,0z" fill="none" stroke="#666" stroke-width="1.0327" transform="matrix(.76982,0,0,.76982,221.06457,240.38743)"/>
<path d="m324.02638,308.06393a147.57637,147.57637 0 1,1 -295.15274,0 147.57637,147.57637 0 1,1 295.15274,0z" fill="none" stroke="#666" stroke-width="1.0327" transform="matrix(.69284,0,0,.69284,234.64812,264.10293)"/>
<path d="m324.02638,308.06393a147.57637,147.57637 0 1,1 -295.15274,0 147.57637,147.57637 0 1,1 295.15274,0z" fill="none" stroke="#666" stroke-width="1.0327" transform="matrix(.50508,0,0,.50508,267.77838,321.94504)"/>
<path d="m324.02638,308.06393a147.57637,147.57637 0 1,1 -295.15274,0 147.57637,147.57637 0 1,1 295.15274,0z" fill="none" stroke="#666" stroke-width="1.0327" transform="matrix(.3682,0,0,.3682,291.93034,364.11194)"/>
<path d="m282.64575,580.84734 70.75303-72.13631" fill="#666" stroke="#4d4d4d" stroke-width=".40799"/>
<path d="m446.58955,568.95173-73.36398-78.24253" fill="#666" stroke="#4d4d4d" stroke-width=".43268"/>
<path d="m342.65765,463.14128-70.26132-71.38277" fill="#666" stroke="#4d4d4d" stroke-width=".40444"/>
<path d="m359.12605,503.74086 101.88961-101.39434" fill="#666" stroke="#4d4d4d" stroke-width=".58046"/>
<path d="m395.84241,391.29651a33.20826,33.20826 0 1,1 -66.41651,0 33.20826,33.20826 0 1,1 66.41651,0z" fill="url(#radialGradient4151-3-7)" opacity=".6637" transform="matrix(-1.00724,-.47629,.55608,-1.17599,448.75832,1187.2589)"/>
<path d="m395.84241,391.29651a33.20826,33.20826 0 1,1 -66.41651,0 33.20826,33.20826 0 1,1 66.41651,0z" fill="url(#radialGradient4151-5-0)" opacity=".6637" transform="matrix(.31449,-1.06887,1.24795,.36718,-337.5762,691.46408)"/>
<path d="m358.5625,322.65594c-84.51167,0-153.03187,68.5202-153.03187,153.03187s68.5202,153 153.03187,153 153.03188-68.48833 153.03188-153-68.52021-153.03187-153.03188-153.03187zm-.15937,8.82937c26.67914,0 48.3225,21.61149 48.3225,48.29063s-21.64336,48.3225-48.3225,48.3225-48.29063-21.64336-48.29063-48.3225 21.61148-48.29063 48.29063-48.29063zm-93.17063,66.07688c26.67914,0 48.29062,21.61148 48.29062,48.29062s-21.61148,48.3225-48.29062,48.3225-48.3225-21.64336-48.3225-48.3225 21.64336-48.29062 48.3225-48.29062zm185.895.98812c26.67914,0 48.3225,21.64336 48.3225,48.3225s-21.64336,48.29063-48.3225,48.29063-48.29062-21.61149-48.29062-48.29063 21.61148-48.3225 48.29062-48.3225zm-112.965,42.93563c3.4143,0 6.18375,2.76945 6.18375,6.18375s-2.76945,6.15187-6.18375,6.15187-6.18375-2.73758-6.18375-6.15187 2.76945-6.18375 6.18375-6.18375zm40.44937.31875c3.4143,0 6.15188,2.76945 6.15188,6.18375s-2.73758,6.18375-6.15188,6.18375-6.18374-2.76946-6.18374-6.18375 2.76945-6.18375 6.18374-6.18375zm-21.06937,13.16437c.35123-.0178.69622,0 1.05188,0 11.38099,0 20.62312,9.21026 20.62312,20.59125s-9.24213,20.62313-20.62312,20.62313-20.59126-9.24213-20.59126-20.62313c0-11.02533 8.65121-20.03933 19.53938-20.59125zm33.59625,25.5c3.4143,0 6.18375,2.76946 6.18375,6.18375s-2.76945,6.18375-6.18375,6.18375-6.18375-2.76945-6.18375-6.18375 2.76945-6.18375 6.18375-6.18375zm-65.47125.60563c3.4143,0 6.18375,2.76945 6.18375,6.18375s-2.76945,6.18375-6.18375,6.18375-6.18375-2.76946-6.18375-6.18375 2.76945-6.18375 6.18375-6.18375zm32.73563,22.63125c3.41429,0 6.18375,2.76945 6.18375,6.18375s-2.76946,6.15187-6.18375,6.15187-6.18375-2.73758-6.18375-6.15187 2.76945-6.18375 6.18375-6.18375zm-57.43875,3.41062c26.67914,0 48.29062,21.61149 48.29062,48.29063s-21.61148,48.3225-48.29062,48.3225-48.3225-21.64336-48.3225-48.3225 21.64335-48.29063 48.3225-48.29063zm114.90937,0c26.67914,0 48.29062,21.61149 48.29062,48.29063s-21.61148,48.3225-48.29062,48.3225-48.3225-21.64336-48.3225-48.3225 21.64336-48.29063 48.3225-48.29063z" fill="#ccc"/>
<path d="m395.84241,391.29651a33.20826,33.20826 0 1,1 -66.41651,0 33.20826,33.20826 0 1,1 66.41651,0z" fill="url(#radialGradient4134-6)" opacity=".6637" transform="matrix(1.11418,0,0,1.30084,-45.38888,-127.01675)"/>
<path d="m395.84241,391.29651a33.20826,33.20826 0 1,1 -66.41651,0 33.20826,33.20826 0 1,1 66.41651,0z" fill="url(#radialGradient4151-2-2)" opacity=".6637" transform="matrix(.18131,1.09932,-1.2835,.21169,886.3406,-33.95675)"/>
<path d="m395.84241,391.29651a33.20826,33.20826 0 1,1 -66.41651,0 33.20826,33.20826 0 1,1 66.41651,0z" fill="url(#radialGradient4151-8-8)" opacity=".6637" transform="matrix(-.72571,.84541,-.98705,-.8473,1063.8384,577.87897)"/>
<path d="m92.09756,383.76932a54.90432,54.90432 0 1,1 -109.80863,0 54.90432,54.90432 0 1,1 109.80863,0z" fill="none" opacity=".6637" stroke="url(#radialGradient4264)" stroke-width="6.87975" transform="matrix(.94144,0,0,.94144,230.42933,84.68228)"/>
<path d="m92.09756,383.76932a54.90432,54.90432 0 1,1 -109.80863,0 54.90432,54.90432 0 1,1 109.80863,0z" fill="none" opacity=".6637" stroke="url(#radialGradient4264)" stroke-width="6.87975" transform="matrix(.94144,0,0,.94144,324.09938,18.23368)"/>
<path d="m92.09756,383.76932a54.90432,54.90432 0 1,1 -109.80863,0 54.90432,54.90432 0 1,1 109.80863,0z" fill="none" opacity=".6637" stroke="url(#radialGradient4264)" stroke-width="6.87975" transform="matrix(.94144,0,0,.94144,417.08725,86.1743)"/>
<path d="m92.09756,383.76932a54.90432,54.90432 0 1,1 -109.80863,0 54.90432,54.90432 0 1,1 109.80863,0z" fill="none" opacity=".6637" stroke="url(#radialGradient4264)" stroke-width="6.87975" transform="matrix(.94144,0,0,.94144,381.39493,195.12977)"/>
<path d="m92.09756,383.76932a54.90432,54.90432 0 1,1 -109.80863,0 54.90432,54.90432 0 1,1 109.80863,0z" fill="none" opacity=".6637" stroke="url(#radialGradient4264)" stroke-width="6.87975" transform="matrix(.94144,0,0,.94144,266.17766,193.87741)"/>
<path d="m358.875,314.63266c-89.34778,0-161.77359,72.42581-161.77359,161.77359s72.42581,161.77359 161.77359,161.77359 161.77359-72.42581 161.77359-161.77359-72.42581-161.77359-161.77359-161.77359zm0,9.39046c84.16824,0 152.38312,68.22378 152.38312,152.38313s-68.21488,152.38312-152.38312,152.38312-152.41453-68.22377-152.41453-152.38312 68.24629-152.38313 152.41453-152.38313z" fill="url(#linearGradient3975-2)"/>
<path d="m358.79693,296.86218c-98.85503,0-178.98443,80.27248-178.98443,179.2656s80.1294,179.2344 178.98443,179.2344 179.01557-80.2413 179.01557-179.2344-80.16053-179.2656-179.01557-179.2656zm0,17.92969c88.96952,0 161.1109,72.24211 161.1109,161.33591s-72.14138,161.30471-161.1109,161.30471-161.07976-72.21094-161.07976-161.30471 72.11024-161.33591 161.07976-161.33591z" fill="url(#linearGradient6544)"/>
</g>
</g>
</svg>
